<?xml version="1.0" encoding="UTF-8"?>
<svg width="64" height="64" viewBox="0 0 64 64" fill="none" xmlns="http://www.w3.org/2000/svg">
  <!-- Background -->
  <rect width="64" height="64" rx="16" fill="url(#gradient64)"/>

  <defs>
    <linearGradient id="gradient64" x1="0%" y1="0%" x2="100%" y2="100%">
      <stop offset="0%" style="stop-color:#6366f1;stop-opacity:1" />
      <stop offset="100%" style="stop-color:#8b5cf6;stop-opacity:1" />
    </linearGradient>
  </defs>

  <!-- Browser window -->
  <rect x="12" y="16" width="40" height="32" rx="2" fill="white" opacity="0.15"/>
  <rect x="12" y="16" width="40" height="6" rx="2" fill="white" opacity="0.25"/>
  <circle cx="16" cy="19" r="1" fill="white" opacity="0.9"/>
  <circle cx="20" cy="19" r="1" fill="white" opacity="0.9"/>
  <circle cx="24" cy="19" r="1" fill="white" opacity="0.9"/>

  <!-- Fingerprint -->
  <path d="M32 27.5 C32 27.5 30 27.5 30 29.5 C30 31.5 32 31.5 32 31.5 M32 33.5 C32 33.5 28 33.5 28 29.5 C28 25.5 32 25.5 32 25.5 M32 35.5 C32 35.5 26 35.5 26 29.5 C26 23.5 32 23.5 32 23.5 M34 27.5 C34 27.5 36 27.5 36 29.5 C36 31.5 34 31.5 34 31.5 M34 33.5 C34 33.5 38 33.5 38 29.5 C38 25.5 34 25.5 34 25.5 M34 35.5 C34 35.5 40 35.5 40 29.5 C40 23.5 34 23.5 34 23.5"
        stroke="white"
        stroke-width="0.75"
        stroke-linecap="round"
        fill="none"
        opacity="0.95"/>

  <!-- Shield badge -->
  <g transform="translate(45, 42.5)">
    <path d="M 0 0 L -1.5 -1 L 0 -6 L 1.5 -1 Z" fill="white" opacity="0.9"/>
  </g>
</svg>
