<?xml version="1.0" encoding="UTF-8"?>
<svg width="22" height="22" viewBox="0 0 22 22" fill="none" xmlns="http://www.w3.org/2000/svg">
  <!-- Simple monochrome tray icon - browser with fingerprint -->
  <rect x="3" y="5" width="16" height="12" rx="1" stroke="currentColor" stroke-width="1.5" fill="none"/>
  <line x1="3" y1="8" x2="19" y2="8" stroke="currentColor" stroke-width="1.5"/>
  <circle cx="5.5" cy="6.5" r="0.5" fill="currentColor"/>
  <circle cx="7.5" cy="6.5" r="0.5" fill="currentColor"/>

  <!-- Fingerprint curves -->
  <path d="M11 11 C11 11 10 11 10 12 C10 13 11 13 11 11 M11 14 C11 14 9 14 9 12 C9 10 11 10 11 10 M12 11 C12 11 13 11 13 12 C13 13 12 13 12 13 M12 14 C12 14 14 14 14 12 C14 10 12 10 12 10"
        stroke="currentColor"
        stroke-width="0.8"
        stroke-linecap="round"
        fill="none"/>
</svg>
